<?xml version="1.0" encoding="utf-8"?>
<!-- Generator: Adobe Illustrator 22.0.1, SVG Export Plug-In . SVG Version: 6.00 Build 0)  -->
<svg version="1.1" id="adb94446-5251-4268-838a-0133635768e6"
	 xmlns="http://www.w3.org/2000/svg" xmlns:xlink="http://www.w3.org/1999/xlink" x="0px" y="0px" viewBox="0 0 307.8 683.9"
	 style="enable-background:new 0 0 307.8 683.9;" xml:space="preserve">
<style type="text/css">
	.st0{fill:#8C1B1B;}
	.st1{fill:#F2F2F2;}
	.st2{fill:#3F3D56;}
	.st3{fill:#2F2E41;}
	.st4{fill:#FFB8B8;}
	.st5{fill:#B3B3B3;}
	.st6{fill:#FFFFFF;}
	.st7{fill:none;}
	.st8{fill:#754077;}
	.st9{font-family:'Roboto-Bold';}
	.st10{font-size:54px;}
</style>
<path class="st0" d="M-197,184.5c0-36.7-39.8-66.5-89-66.5s-89,29.8-89,66.5s39.8,66.5,89,66.5c2.9,0,5.8-0.1,8.6-0.3
	c20.3,9.7,54.4,14.3,54.4,14.3c-13.1-3.6-23.8-11.1-31.5-18.3C-220.9,237.2-197,212.9-197,184.5z"/>
<path class="st1" d="M59.4,681.6c-2-21.7-7.6-42.8-16.4-62.7c-2.5-5.5-5.2-10.9-8.2-16.2c-0.3-0.6-0.1-1.3,0.5-1.6s1.3-0.1,1.6,0.4
	c10.8,19.2,18.4,40.1,22.4,61.8c1.1,6.1,2,12.2,2.5,18.3C62,683.2,59.6,683.2,59.4,681.6L59.4,681.6z"/>
<ellipse transform="matrix(0.9998 -2.040437e-02 2.040437e-02 0.9998 -12.0585 0.7148)" class="st1" cx="29" cy="591.3" rx="15.3" ry="15.3"/>
<path class="st1" d="M57.9,682c-1.3-14-4.9-27.8-10.7-40.7c-1.6-3.6-3.4-7.1-5.3-10.5c-0.2-0.4-0.1-0.9,0.3-1.1
	c0.4-0.2,0.8-0.1,1,0.3c7,12.5,11.9,26,14.5,40.1c0.7,3.9,1.3,7.9,1.6,11.9C59.5,683.1,58,683,57.9,682L57.9,682z"/>
<ellipse transform="matrix(0.9998 -2.040441e-02 2.040441e-02 0.9998 -12.7136 0.9072)" class="st1" cx="38.1" cy="623.5" rx="9.9" ry="9.9"/>
<path class="st1" d="M59.8,681.1c7.6-11.9,13.2-24.9,16.6-38.6c0.9-3.8,1.7-7.7,2.3-11.5c0.1-0.4,0.5-0.7,0.9-0.6
	c0.4,0.1,0.7,0.4,0.7,0.9c-2.1,14.1-6.6,27.9-13.2,40.6c-1.8,3.5-3.8,7-6,10.4C60.5,682.9,59.3,682,59.8,681.1L59.8,681.1z"/>
<circle class="st1" cx="80.3" cy="622.8" r="9.9"/>
<path class="st2" d="M276.6,683.9H8.3c-0.7,0-1.2-0.5-1.2-1.2s0.5-1.2,1.2-1.2h268.3c0.7,0,1.2,0.5,1.2,1.2
	C277.7,683.4,277.2,683.9,276.6,683.9z"/>
<path class="st3" d="M161.8,344.5c-8.1-3.7-13.4-14.4-13.1-24.9s5.8-20.3,13.5-25.3c7.6-4.8,17-5.6,25.2-1.9
	c8.2,3.5,19.2,4.4,24.1,13.1c3.8,6.7,2.4,21.5-0.3,28.9c-2.3,6.4-8,10-13.5,12c-12.4,4.5-26,3.4-37.5-3"/>
<polygon class="st4" points="112.4,670.7 100.7,666.9 109.8,620.1 127,625.7 "/>
<path class="st3" d="M93.5,660.9l22.5,7.3l0,0l-4.6,14.2l0,0l-36.6-11.9l0,0l0,0C77.3,662.6,85.7,658.3,93.5,660.9z"/>
<polygon class="st4" points="216.8,671 204.5,671 198.7,623.7 216.8,623.7 "/>
<path class="st3" d="M195.7,667.5h23.6l0,0v14.9l0,0h-38.5l0,0l0,0C180.8,674.1,187.5,667.5,195.7,667.5z"/>
<path class="st3" d="M216.1,651.6c-0.1,0-0.1,0-0.2,0l-13.6-0.6c-2.4-0.1-4.2-2.1-4.3-4.4l-1.8-134.4c0-0.8-0.7-1.5-1.5-1.5
	c-0.5,0-1,0.3-1.3,0.8l-72,136.4c-0.9,1.8-2.9,2.7-4.8,2.3l-13.5-2.6c-2.4-0.5-4-2.8-3.6-5.3c0-0.2,0.1-0.4,0.2-0.7L152.1,493
	l4-43.9c0.2-2.1,1.8-3.8,3.9-4c15.3-1.9,36.6-14.4,45.1-19.7c1.1-0.7,2.3-0.9,3.5-0.5c1.2,0.3,2.2,1.1,2.8,2.2
	c20.4,37.9,28.2,81.3,22.3,124l-13.2,96.5C220.3,650,218.4,651.6,216.1,651.6z"/>
<circle class="st4" cx="179.6" cy="330.2" r="24.6"/>
<path class="st5" d="M155.1,459.8l-7.4-52.8c-3.8-16.7,6.8-33.3,23.5-37.1c16.7-3.7,33.3,6.7,37.1,23.5c2.1,9.8,6.4,21.7,4.8,34.5
	l0,0C202.1,458.2,182.3,467.6,155.1,459.8z"/>
<path class="st5" d="M187.6,377.8h-18c-2.5,0-4.5-2-4.5-4.5v-6c0-2.5,2-4.5,4.5-4.5h18c2.5,0,4.5,2,4.5,4.5v6
	C192.1,375.8,190.1,377.8,187.6,377.8z"/>
<path class="st4" d="M278.8,477.7c1.8-5.6-1.2-11.7-6.9-13.6c-0.6-0.2-1.2-0.3-1.8-0.4l-56-80.2l-16.6,16.4l60.3,73.7
	c-0.4,5.9,4,11.1,10,11.6C272.7,485.5,277.3,482.4,278.8,477.7z"/>
<path class="st5" d="M231.6,408l-20.2,13.5c-2.2,1.5-5.2,0.9-6.7-1.3c-0.1-0.2-0.2-0.4-0.3-0.6l-10.4-22c-4.1-6.2-2.4-14.5,3.8-18.5
	c6.1-4,14.4-2.4,18.5,3.7l16.2,17.9c1.8,2,1.6,5-0.3,6.8C232,407.7,231.8,407.9,231.6,408L231.6,408z"/>
<path class="st4" d="M80.9,369.9c0.1,0.5,0.2,1.1,0.2,1.6l43,24.8l10.4-6l11.1,14.6l-17.5,12.4c-2.9,2.1-6.8,2-9.6-0.2l-44.3-34.9
	c-5.4,2-11.5-0.8-13.5-6.2s0.8-11.5,6.2-13.5s11.5,0.8,13.5,6.2C80.7,369.1,80.8,369.5,80.9,369.9L80.9,369.9z"/>
<path class="st5" d="M136.6,414.3l-10.8-21.8c-1.2-2.4-0.2-5.3,2.2-6.5c0.2-0.1,0.4-0.2,0.7-0.3l23.1-7.5c6.6-3.2,14.6-0.5,17.9,6.2
	c3.2,6.6,0.5,14.6-6.1,17.9l-19.9,13.8c-2.2,1.5-5.2,1-6.7-1.2C136.8,414.7,136.7,414.5,136.6,414.3L136.6,414.3z"/>
<path class="st3" d="M196,299.3c1.8,0.3,3.6-0.7,4.3-2.4c0.7-1.7,0.5-3.6-0.4-5.1s-2.2-2.8-3.8-3.7c-1.8-1.2-3.8-1.9-6-2.1
	c-2.2-0.1-4.3,0.7-5.8,2.2c-1.5,1.6-1.9,3.9-1,5.9c0.9,1.7,2.8,2.7,4.6,3.4c3.6,1.3,7.5,1.8,11.4,1.5"/>
<path class="st3" d="M203.9,341.4c-4.3,0.2-3.6-8.9-4.9-13s-3.2-9-7.4-9.7c-3.5-0.6-6.6,1.9-9.6,3.7c-5.4,3.2-12.3,4.4-18,1.7
	s-9.1-10.1-6.3-15.7c1.7-3.1,4.6-5.4,8-6.3s7-1,10.5-0.5c7.8,1,15.2,3.6,21.9,7.8c4.6,2.9,8.9,6.8,10.3,12s1.9,19.5-3.4,20.4
	L203.9,341.4z"/>
<path class="st3" d="M192.7,286.6c-3.2-4.1-2-10.6,1.8-14.2s9.4-4.8,14.6-4.3c10.5,1.1,19.7,7.6,24,17.3c3.3,7.5,3.3,16.2,6.2,23.8
	c6.4,16.5,25.1,24.7,41.6,18.3c0.6-0.2,1.2-0.5,1.8-0.8c5.2-2.4,10.1-7.1,9.8-12.8c3.3,12.6-2.6,27.1-13.8,33.8
	c-6.6,3.9-14.3,5.3-21.9,6.2c-5,0.6-10,1-14.9-0.2c-6.8-1.7-12.4-6.7-15.8-12.8s-4.8-13.2-4.8-20.1c0-5.4,0.7-10.9,0.3-16.3
	s-2-11-5.9-14.8s-10.6-5-14.9-1.7c-1.7,1.3-3,3.3-5,4.3s-5,0.2-5.2-2L192.7,286.6z"/>
<image style="overflow:visible;enable-background:new    ;" width="1372" height="772" xlink:href="8B8CAAAD.jpg"  transform="matrix(0.4406 0 0 0.4406 -623.9857 221.9916)">
</image>
<rect x="385" y="138" class="st6" width="352.9" height="547"/>
<g>
	<path class="st6" d="M188,172c0-38.7-39.2-70-87.5-70C52.2,102,13,133.3,13,172c0,33.9,30.2,62.2,70.3,68.6
		c12.7,17.5,33.6,39.3,66.1,56.3c-2-1.1-25.7-14.6-43.1-55.1C151.9,239.4,188,209.1,188,172z"/>
	<path class="st6" d="M149.4,296.9c0.1,0.1,0.1,0.1,0.1,0.1C149.5,297,149.5,297,149.4,296.9z"/>
</g>
<g>
	<rect x="58" y="152" class="st7" width="132" height="66"/>
	<text transform="matrix(1 0 0 1 58 192.5)" class="st8 st9 st10">1-1</text>
</g>
</svg>
