<?xml version="1.0" encoding="utf-8"?>
<!-- Generator: Adobe Illustrator 22.0.1, SVG Export Plug-In . SVG Version: 6.00 Build 0)  -->
<svg version="1.1" id="ab03870f-e999-49c0-989a-dd3dcf1198ff"
	 xmlns="http://www.w3.org/2000/svg" xmlns:xlink="http://www.w3.org/1999/xlink" x="0px" y="0px" viewBox="0 0 536.4 330.5"
	 style="enable-background:new 0 0 536.4 330.5;" xml:space="preserve">
<style type="text/css">
	.st0{fill:#D0CDE1;}
	.st1{fill:#FFFFFF;}
	.st2{fill:#764177;}
	.st3{fill:#3F3D56;}
	.st4{fill:#2F2E41;}
	.st5{fill:#FFB8B8;}
	.st6{opacity:0.15;enable-background:new    ;}
	.st7{opacity:0.15;fill:none;stroke:#000000;stroke-width:2;stroke-miterlimit:10;enable-background:new    ;}
</style>
<title>completed_steps</title>
<ellipse class="st0" cx="228" cy="259" rx="31" ry="7"/>
<circle class="st1" cx="231" cy="240" r="18"/>
<path class="st2" d="M231,219.8c-11,0-19.9,8.9-19.9,19.9s8.9,19.9,19.9,19.9s19.9-8.9,19.9-19.9S242,219.8,231,219.8
	C231,219.8,231,219.8,231,219.8z M227.5,248.6L219,240l2.4-2.4l6.2,6.2l13-13l2.4,2.4L227.5,248.6z"/>
<ellipse class="st0" cx="57" cy="259" rx="31" ry="7"/>
<ellipse class="st0" cx="138" cy="259" rx="31" ry="7"/>
<circle class="st1" cx="141" cy="240" r="18"/>
<path class="st2" d="M141,219.8c-11,0-19.9,8.9-19.9,19.9s8.9,19.9,19.9,19.9s19.9-8.9,19.9-19.9S152,219.8,141,219.8L141,219.8z
	 M137.5,248.6L129,240l2.4-2.4l6.2,6.2l13-13l2.4,2.4L137.5,248.6z"/>
<rect x="2" y="283.5" class="st3" width="531" height="2"/>
<path class="st4" d="M449.6,314.4c0,0.1-0.2,0.2-0.5,0.3c-5.7,2.3-53.8,14.8-59.5,15.7c-6,1-30-3-35-13s26-13,26-13l11-11l1.6-8.3
	l1.4-7.7l48,21C442.6,298.4,449.6,313.4,449.6,314.4z"/>
<path class="st5" d="M260.6,197.4l-7,4c0,0-24,18-16,26s20-15,20-15l7-5L260.6,197.4z"/>
<circle class="st5" cx="332.6" cy="73.4" r="27"/>
<path class="st5" d="M350.6,64.4c0,0,33,9,36,8l-10,36c0,0-28-19-33-19L350.6,64.4z"/>
<path class="st0" d="M359.6,100.4c0,0,15-32,19-32s53,3,77,38s24,48,24,48l-65,16l-2-2c0,0-18,5-29-20L359.6,100.4z"/>
<path class="st0" d="M386.6,86.4c0,0-20-2-34,21c-14,23-42,43-42,43l-53,47l6,14l63-38l73-51C399.6,122.4,411.6,92.4,386.6,86.4z"/>
<path class="st5" d="M394.6,195.4l-5,76c0,0-5.8-3.4-14.7-8.9c-21.3-13.2-59.8-38.4-75.3-56.1c-18-20.4,4.1-31.5,12.8-34.9
	c1.9-0.8,3.2-1.1,3.2-1.1L394.6,195.4z"/>
<path class="st6" d="M449.6,314.4c0,0.1-0.2,0.2-0.5,0.3c-22.6-2.3-41.2-14.6-55.9-29.6l1.4-7.7l48,21
	C442.6,298.4,449.6,313.4,449.6,314.4z"/>
<path class="st4" d="M414.6,166.4v7c0,0-4-2-2,2l-1,3l-21,3c0,0-71-23-78-12l11,53l29-8c0,0,43,123,133,93l1-4l18-4
	c0,0-13-142-24-147L414.6,166.4z"/>
<line class="st7" x1="483" y1="221" x2="483" y2="296"/>
<line class="st7" x1="360" y1="211" x2="414" y2="194"/>
<line class="st7" x1="408.6" y1="283.5" x2="446" y2="202"/>
<path class="st4" d="M345.4,54.9c4.6-2.9,9.1-6.6,14.4-7.1c7-0.7,13.1,4.2,17.8,9.3s9.2,11,15.8,13.2c3.8,1.3,8,1.2,12,1.7
	s8.2,1.8,10.7,5.1c2.5,3.4,2.5,8.1,3.6,12.2c2.6,9.1,10.9,15.3,20.3,15.3c-8.8-0.6-17,4.9-24.6,9.7s-16.4,9.7-24.9,7.7
	c-8.8-2-14.4-10.4-22.6-14.1c-7-3.2-15-2.7-22.7-3.2s-16.1-2.6-20.2-9.1c-3-4.8-3.6-11.7-8.7-14.2c-3.1-1.6-6.9-0.8-10.4-0.9
	s-7.7-1.7-8.1-5.2c9.1-5,18.1-10.2,27.3-14.9C330.9,57.5,341,60.9,345.4,54.9z"/>
<path class="st0" d="M311.1,78c0,0,45.9-22.9,45.9-31.1s-18-32.8-50.8-32.8c0,0-8.2-14.7-18-3.3s4.9,19.7,4.9,19.7
	s-18,29.5,8.2,47.5L311.1,78z"/>
</svg>
