<?xml version="1.0" encoding="utf-8"?>
<!-- Generator: Adobe Illustrator 22.0.1, SVG Export Plug-In . SVG Version: 6.00 Build 0)  -->
<svg version="1.1" id="a20c48fb-929f-471c-8be9-9df795afdcf1"
	 xmlns="http://www.w3.org/2000/svg" xmlns:xlink="http://www.w3.org/1999/xlink" x="0px" y="0px" viewBox="0 0 649.7 870.2"
	 style="enable-background:new 0 0 649.7 870.2;" xml:space="preserve">
<style type="text/css">
	.st0{fill:#F2F2F2;}
	.st1{fill:#FFFFFF;}
	.st2{fill:#754077;}
	.st3{fill:#3F3D56;}
	.st4{fill:#A0616A;}
	.st5{fill:#2F2E41;}
	.st6{fill:#CCCCCC;}
</style>
<path class="st0" d="M484.6,864c-9-7.6-14.5-19.6-13-31.3s10.3-22.4,21.8-24.9s24.6,4.4,28.1,15.6c1.9-21.7,4.1-44.3,15.7-62.7
	c10.4-16.7,28.5-28.7,48.1-30.8s40.2,5.9,52.4,21.4s15.2,37.9,6.7,55.7c-6.3,13.1-17.9,22.8-30.1,30.7
	c-39.3,25.4-86.5,35.7-132.8,29"/>
<path class="st1" d="M618.4,736.3c-16.2,13.2-31,27.9-44.3,44c-20.8,25.1-37.6,53.2-49.9,83.3c-0.9,2.2,2.7,3.2,3.6,1
	c20.1-49,52.1-92.2,93.2-125.6C622.8,737.4,620.2,734.8,618.4,736.3z"/>
<path class="st2" d="M158.8,868.5h-51c-3.6,0-6.5-2.9-6.5-6.5V432.2c0-3.6,2.9-6.5,6.5-6.5h51c3.6,0,6.5,2.9,6.5,6.5V862
	C165.3,865.6,162.4,868.5,158.8,868.5z"/>
<path class="st3" d="M279.8,869.5h-51c-4.1,0-7.5-3.4-7.5-7.5V332.2c0-4.1,3.4-7.5,7.5-7.5h51c4.1,0,7.5,3.4,7.5,7.5V862
	C287.3,866.2,284,869.5,279.8,869.5z M228.8,326.7c-3,0-5.5,2.5-5.5,5.5V862c0,3,2.5,5.5,5.5,5.5h51c3,0,5.5-2.5,5.5-5.5V332.2
	c0-3-2.5-5.5-5.5-5.5H228.8z"/>
<path class="st3" d="M400.8,869.5h-51c-4.1,0-7.5-3.4-7.5-7.5V201.2c0-4.1,3.4-7.5,7.5-7.5h51c4.1,0,7.5,3.4,7.5,7.5V862
	C408.3,866.2,405,869.5,400.8,869.5z M349.8,195.7c-3,0-5.5,2.5-5.5,5.5V862c0,3,2.5,5.5,5.5,5.5h51c3,0,5.5-2.5,5.5-5.5V201.2
	c0-3-2.5-5.5-5.5-5.5H349.8z"/>
<path class="st2" d="M523,869h-51c-3.6,0-6.5-2.9-6.5-6.5V63.7c0-3.6,2.9-6.5,6.5-6.5h51c3.6,0,6.5,2.9,6.5,6.5v798.9
	C529.5,866.1,526.6,869,523,869z"/>
<path class="st4" d="M205.8,251.8c0.7-5.5-3.2-10.5-8.7-11.2c-0.6-0.1-1.2-0.1-1.8-0.1l-17.8-32.6l-4,14l12.2,29.9
	c0.6,5.5,5.7,9.5,11.2,8.9C201.6,260.1,205.2,256.4,205.8,251.8L205.8,251.8z"/>
<polygon class="st4" points="68.8,380.5 78.7,387.8 111.3,353 96.7,342.4 "/>
<path class="st5" d="M91.1,410.9L60,388.2l0,0l8.8-12l0,0l19.1,13.9C94.5,395,95.9,404.3,91.1,410.9L91.1,410.9L91.1,410.9z"/>
<polygon class="st4" points="121.2,418.8 133.5,418.8 139.3,371.5 121.2,371.5 "/>
<path class="st5" d="M157.1,430.2l-38.5,0l0,0l0-14.9l0,0l23.6,0C150.4,415.3,157.1,422,157.1,430.2L157.1,430.2L157.1,430.2z"/>
<path class="st5" d="M158,234.4c0,0,6,58-9,98l-11,76h-19l2-90l-7-80C114,238.4,128,202.4,158,234.4z"/>
<polygon class="st5" points="93,238.4 113,307.4 74,369.4 93.5,385.9 138,316.4 125,231.4 "/>
<circle class="st4" cx="144" cy="59.1" r="24.6"/>
<path class="st6" d="M123.5,92.9c0,0,15-10,32,12l4.5,138.5c0,0-13-18-40-1s-33-2-33-2S68,97.4,123.5,92.9z"/>
<path class="st6" d="M154.3,104.5L154.3,104.5c8.9,0.5,16.1,7.6,16.5,16.6l3.2,60.3l21,57l-12,10l-39-68l-8-55.9
	c-1.4-9.6,5.3-18.4,14.9-19.8C152,104.5,153.2,104.5,154.3,104.5z"/>
<path class="st5" d="M126,77.5c4,4.3,11.5,2,12-3.9c0-0.5,0-0.9,0-1.4c-0.3-2.6-1.8-4.9-1.4-7.7c0.1-0.7,0.3-1.3,0.7-1.9
	c3.2-4.3,10.7,1.9,13.7-2c1.9-2.4-0.3-6.1,1.1-8.8c1.9-3.5,7.4-1.8,10.9-3.7c3.9-2.1,3.6-8.1,1.1-11.7c-3.1-4.4-8.6-6.8-14-7.1
	s-10.7,1.1-15.8,3.1c-5.7,2.2-11.4,5.3-14.9,10.3c-4.3,6.1-4.7,14.3-2.5,21.5C118.3,68.7,122.7,74,126,77.5z"/>
<path class="st3" d="M648.5,869.8H1.2c-0.7,0-1.2-0.5-1.2-1.2c0-0.7,0.5-1.2,1.2-1.2h647.3c0.7,0,1.2,0.5,1.2,1.2
	C649.7,869.3,649.1,869.8,648.5,869.8z"/>
</svg>
